<svg xmlns="http://www.w3.org/2000/svg" width="36" height="36"><g fill="none"><path d="M22.784 34.71a17.053 17.053 0 0 0 5.883-2.978v-8.64l-5.883 5.4v6.219zm-7.491-4.95v5.4c.941.157 1.893.235 2.847.235a16.936 16.936 0 0 0 3.036-.27v-5.121l-2.793 2.574-3.09-2.817zm-7.5.81v1.306a16.998 16.998 0 0 0 5.892 2.889V28.33l-1.796-1.62-4.096 3.86z" fill="#FFF"/><path d="m33.724 16.207-3.943.954.898.99-2.021 1.863v-7.245h-5.874v12.708l-1.608 1.485V16.936h-5.883v9.81l-1.608-1.485v-2.7H7.793v4.95l-2.308 2.25c.269.297.547.585.844.855l5.56-5.355 6.494 5.877 13.15-12.06.897 1.053 1.294-3.924z" fill="#FFF"/><path d="M2.386 24.865A16.33 16.33 0 0 1 6.428 7.513a7.59 7.59 0 0 0-.521 1.8 12.084 12.084 0 0 0 .18 4.5l-.225.387-.494 1.044c-.081.18-.18.35-.243.53l-.197.54a18.03 18.03 0 0 0-1.015 4.5 17.012 17.012 0 0 0 1.68 8.947 16.481 16.481 0 0 1-1.33-8.235 16.404 16.404 0 0 1 1.985-6.417 16.71 16.71 0 0 0-1.985 6.417 16.75 16.75 0 0 1 2.12-6.561 21.23 21.23 0 0 0 1.446 3.744c.278.567.575 1.116.898 1.656-.18.513-.341 1.035-.476 1.566h.17c.153-.414.324-.82.504-1.215.242.414.503.819.772 1.215h.279c-.306-.495-.593-1.008-.899-1.521a18.364 18.364 0 0 1 13.536-10.278c.719.63 1.401 1.305 2.057 2.007h.216a31.563 31.563 0 0 0-1.896-2.061 17.633 17.633 0 0 1 2.695-.198 18.46 18.46 0 0 1 6.045.98l.44.424a16.224 16.224 0 0 1-2.901 19.683v.234a17.211 17.211 0 0 0 5.373-17.405A17.17 17.17 0 0 0 21.384 1.327 17.138 17.138 0 0 0 4.39 7.801c-.162.216-.315.44-.467.657 0 .054-.063.108-.1.153-.035.045-.233.36-.34.54l-.207.35c-.063.118-.135.235-.198.36-.063.127-.224.415-.323.622l-.054.099a17.131 17.131 0 0 0-.305 14.21l-.01.073zm6.503-4.851c-.18-.351-.35-.711-.512-1.071a19.9 19.9 0 0 1-1.348-4.158 19.33 19.33 0 0 1-.116-.666 16.335 16.335 0 0 1 5.434-5.23 14.738 14.738 0 0 1 1.715-.9c.29-.142.59-.262.899-.36l.898-.332.898-.243c.31-.087.625-.156.943-.207h.09a20.562 20.562 0 0 1 3.413 2.133A17.868 17.868 0 0 0 8.862 20.014h.027zM25.55 8.44c-1.295 0-2.587.139-3.853.414a25.09 25.09 0 0 0-2.883-2.16 6.08 6.08 0 0 1 .808-.063 16.83 16.83 0 0 1 7.527 1.287c.55.24 1.088.51 1.608.81a17.929 17.929 0 0 0-3.207-.288zm-7.724-5.508A16.39 16.39 0 0 1 28.344 6.72l-.503-.234a16.959 16.959 0 0 0-4.491-1.251 15.481 15.481 0 0 0-2.327-.171 1.515 1.515 0 0 0-.287 0h-.871a8.274 8.274 0 0 0-1.159.099l-1.15.189c-.188 0-.377.09-.566.135h-.18a13.66 13.66 0 0 0-3.637-1.107 8.068 8.068 0 0 0-1.868-.108 16.409 16.409 0 0 1 6.52-1.341zM6.859 10.429a7.066 7.066 0 0 1 .682-2.08 5.533 5.533 0 0 1 1.366-1.691c.15-.107.306-.206.467-.297a5.555 5.555 0 0 1 1.608-.675 7.037 7.037 0 0 1 2.299-.153c.765.066 1.52.214 2.254.44l-.17.055-1.087.405c-.35.162-.7.342-1.042.513l-.566.252-.494.306c-.332.207-.665.396-.988.62l-.898.703a17.086 17.086 0 0 0-3.18 3.357l-.359.477a10.398 10.398 0 0 1 .108-2.232z" fill="#FABE00"/></g></svg>