<svg width="198" height="185" viewBox="0 0 198 185" fill="none" xmlns="http://www.w3.org/2000/svg">
<path d="M47.4889 180C47.0856 180 46.7996 179.736 46.6309 179.208L42.5609 166.316C42.4729 166.037 42.5132 165.759 42.6819 165.48C42.8579 165.201 43.1109 165.062 43.4409 165.062C43.6169 165.062 43.7856 165.121 43.9469 165.238C44.1082 165.348 44.2256 165.524 44.2989 165.766L47.8849 177.184H47.4009L50.8109 165.876C50.8916 165.612 51.0272 165.414 51.2179 165.282C51.4159 165.15 51.6176 165.084 51.8229 165.084C52.0429 165.084 52.2556 165.15 52.4609 165.282C52.6662 165.414 52.8056 165.612 52.8789 165.876L56.2889 177.184H55.8049L59.3909 165.766C59.4716 165.524 59.5852 165.352 59.7319 165.249C59.8859 165.139 60.0509 165.084 60.2269 165.084C60.5496 165.084 60.8062 165.209 60.9969 165.458C61.1876 165.707 61.2316 165.993 61.1289 166.316L57.0589 179.208C56.8829 179.736 56.5602 180 56.0909 180H56.0469C55.5556 180 55.2329 179.736 55.0789 179.208L51.5369 167.746H52.0209L48.4569 179.208C48.3836 179.472 48.2736 179.67 48.1269 179.802C47.9876 179.934 47.7749 180 47.4889 180ZM63.7622 175.182V175.71C63.7622 176.656 63.9345 177.301 64.2792 177.646C64.6239 177.983 65.2729 178.152 66.2262 178.152H68.0302C68.7782 178.152 69.3319 178.082 69.6912 177.943C70.0505 177.804 70.2889 177.558 70.4062 177.206C70.4869 176.927 70.5969 176.715 70.7362 176.568C70.8829 176.421 71.1029 176.348 71.3962 176.348C71.7042 176.348 71.9389 176.429 72.1002 176.59C72.2615 176.751 72.3129 176.986 72.2542 177.294C72.0929 178.203 71.6602 178.882 70.9562 179.329C70.2522 179.776 69.2769 180 68.0302 180H66.2262C64.7669 180 63.6815 179.648 62.9702 178.944C62.2662 178.24 61.9142 177.162 61.9142 175.71V173.158C61.9142 171.669 62.2662 170.577 62.9702 169.88C63.6815 169.176 64.7669 168.831 66.2262 168.846H68.0302C69.4969 168.846 70.5822 169.198 71.2862 169.902C71.9902 170.599 72.3422 171.684 72.3422 173.158V174.258C72.3422 174.874 72.0342 175.182 71.4182 175.182H63.7622ZM66.2262 170.694C65.2729 170.679 64.6239 170.844 64.2792 171.189C63.9345 171.534 63.7622 172.19 63.7622 173.158V173.334H70.4942V173.158C70.4942 172.197 70.3219 171.548 69.9772 171.211C69.6399 170.866 68.9909 170.694 68.0302 170.694H66.2262ZM77.7056 175.182V175.71C77.7056 176.656 77.8779 177.301 78.2226 177.646C78.5672 177.983 79.2162 178.152 80.1696 178.152H81.9736C82.7216 178.152 83.2752 178.082 83.6346 177.943C83.9939 177.804 84.2322 177.558 84.3496 177.206C84.4302 176.927 84.5402 176.715 84.6796 176.568C84.8262 176.421 85.0462 176.348 85.3396 176.348C85.6476 176.348 85.8822 176.429 86.0436 176.59C86.2049 176.751 86.2562 176.986 86.1976 177.294C86.0362 178.203 85.6036 178.882 84.8996 179.329C84.1956 179.776 83.2202 180 81.9736 180H80.1696C78.7102 180 77.6249 179.648 76.9136 178.944C76.2096 178.24 75.8576 177.162 75.8576 175.71V173.158C75.8576 171.669 76.2096 170.577 76.9136 169.88C77.6249 169.176 78.7102 168.831 80.1696 168.846H81.9736C83.4402 168.846 84.5256 169.198 85.2296 169.902C85.9336 170.599 86.2856 171.684 86.2856 173.158V174.258C86.2856 174.874 85.9776 175.182 85.3616 175.182H77.7056ZM80.1696 170.694C79.2162 170.679 78.5672 170.844 78.2226 171.189C77.8779 171.534 77.7056 172.19 77.7056 173.158V173.334H84.4376V173.158C84.4376 172.197 84.2652 171.548 83.9206 171.211C83.5832 170.866 82.9342 170.694 81.9736 170.694H80.1696ZM91.2529 180C90.6369 180 90.3289 179.692 90.3289 179.076V165.436C90.3289 164.82 90.6369 164.512 91.2529 164.512C91.8689 164.512 92.1769 164.82 92.1769 165.436V173.697L97.4129 169.198C97.8822 168.795 98.3149 168.824 98.7109 169.286C99.1142 169.755 99.0849 170.188 98.6229 170.584L94.6079 174.049L98.4469 178.416C98.8576 178.893 98.8356 179.325 98.3809 179.714C97.9116 180.117 97.4716 180.088 97.0609 179.626L93.1999 175.27L92.1769 176.15V179.076C92.1769 179.692 91.8689 180 91.2529 180ZM111.323 180C109.951 180 108.899 179.718 108.166 179.153C107.44 178.581 107.011 177.69 106.879 176.48C106.849 176.172 106.915 175.934 107.077 175.765C107.238 175.596 107.473 175.512 107.781 175.512C108.345 175.512 108.661 175.82 108.727 176.436C108.815 177.103 109.053 177.558 109.442 177.8C109.83 178.035 110.457 178.152 111.323 178.152H113.149C113.831 178.152 114.362 178.075 114.744 177.921C115.132 177.767 115.404 177.499 115.558 177.118C115.712 176.737 115.789 176.201 115.789 175.512V166.008C115.789 165.392 116.097 165.084 116.713 165.084C117.329 165.084 117.637 165.392 117.637 166.008V175.512C117.637 177.059 117.274 178.196 116.548 178.922C115.822 179.641 114.689 180 113.149 180H111.323ZM131.168 168.846C131.784 168.846 132.092 169.154 132.092 169.77V179.076C132.092 179.692 131.784 180 131.168 180C130.552 180 130.244 179.692 130.244 179.076V178.713C129.467 179.571 128.323 180 126.812 180H126.196C124.737 180 123.652 179.648 122.94 178.944C122.236 178.233 121.884 177.147 121.884 175.688V169.77C121.884 169.154 122.192 168.846 122.808 168.846C123.424 168.846 123.732 169.154 123.732 169.77V175.688C123.732 176.641 123.905 177.29 124.249 177.635C124.601 177.98 125.25 178.152 126.196 178.152H126.812C127.692 178.152 128.459 178.049 129.111 177.844C129.771 177.639 130.149 177.323 130.244 176.898V169.77C130.244 169.154 130.552 168.846 131.168 168.846ZM148.881 168.846C150.267 168.846 151.26 169.172 151.862 169.825C152.47 170.478 152.775 171.559 152.775 173.07V179.076C152.775 179.692 152.467 180 151.851 180C151.235 180 150.927 179.692 150.927 179.076V173.07C150.927 172.234 150.765 171.629 150.443 171.255C150.127 170.881 149.607 170.694 148.881 170.694H147.979C147.143 170.694 146.545 170.881 146.186 171.255C145.826 171.629 145.647 172.234 145.647 173.07V179.076C145.647 179.692 145.339 180 144.723 180C144.107 180 143.799 179.692 143.799 179.076V173.07C143.799 172.234 143.637 171.629 143.315 171.255C142.999 170.881 142.479 170.694 141.753 170.694H140.851C140.015 170.694 139.417 170.881 139.058 171.255C138.698 171.629 138.519 172.234 138.519 173.07V179.076C138.519 179.692 138.211 180 137.595 180C136.979 180 136.671 179.692 136.671 179.076V169.77C136.671 169.154 136.979 168.846 137.595 168.846C138.211 168.846 138.519 169.154 138.519 169.77V170.276C138.907 169.77 139.333 169.407 139.795 169.187C140.264 168.96 140.821 168.846 141.467 168.846H141.753C142.662 168.846 143.377 168.974 143.898 169.231C144.418 169.48 144.814 169.887 145.086 170.452C145.474 169.873 145.885 169.462 146.318 169.22C146.758 168.971 147.311 168.846 147.979 168.846H148.881ZM158.048 184.4C157.432 184.4 157.124 184.092 157.124 183.476V169.77C157.124 169.154 157.432 168.846 158.048 168.846C158.664 168.846 158.972 169.154 158.972 169.77V170.045C159.368 169.649 159.856 169.352 160.435 169.154C161.022 168.949 161.678 168.846 162.404 168.846H163.24C164.707 168.846 165.792 169.198 166.496 169.902C167.2 170.606 167.552 171.691 167.552 173.158V175.688C167.552 177.147 167.2 178.233 166.496 178.944C165.792 179.648 164.707 180 163.24 180H158.972V183.476C158.972 184.092 158.664 184.4 158.048 184.4ZM158.972 178.152H163.24C164.201 178.152 164.85 177.98 165.187 177.635C165.532 177.29 165.704 176.641 165.704 175.688V173.158C165.704 172.197 165.532 171.548 165.187 171.211C164.85 170.866 164.201 170.694 163.24 170.694H162.404C161.487 170.694 160.695 170.804 160.028 171.024C159.361 171.244 159.009 171.592 158.972 172.069V178.152Z" fill="white" fill-opacity="0.5"/>
<path d="M179.345 115.609C179.631 115.556 179.929 115.582 180.202 115.685C191.016 119.757 197.167 124.558 197.921 129.522C198.685 134.549 193.878 139.526 184.085 143.85C174.291 148.174 159.93 151.659 142.745 153.882C125.559 156.105 106.287 156.971 87.2649 156.375C68.2428 155.778 50.2881 153.745 35.5782 150.522C20.8683 147.299 10.035 143.024 4.39219 138.216C-1.25065 133.409 -1.46069 128.274 3.78755 123.435C8.9954 118.634 19.3557 114.328 33.6267 111.033C33.8436 110.983 34.0718 110.99 34.285 111.054C35.5458 111.434 35.4913 113.273 34.2181 113.609C23.2991 116.487 15.3132 120.054 11.0556 123.979C6.208 128.448 6.402 133.191 11.6141 137.632C16.8262 142.073 26.8325 146.021 40.4195 148.998C54.0065 151.975 70.5906 153.853 88.1607 154.404C105.731 154.955 123.532 154.155 139.406 152.102C155.279 150.048 168.543 146.829 177.59 142.836C186.636 138.842 191.075 134.244 190.37 129.601C189.8 125.845 185.882 122.189 178.992 118.922C177.516 118.222 177.739 115.908 179.345 115.609Z" fill="white" fill-opacity="0.5"/>
<g filter="url(#filter0_d_83_47)">
<rect x="48" y="39" width="18" height="92" fill="white" fill-opacity="0.7" shape-rendering="crispEdges"/>
</g>
<g filter="url(#filter1_d_83_47)">
<rect x="72" y="20" width="18" height="118" fill="white" fill-opacity="0.6" shape-rendering="crispEdges"/>
</g>
<g filter="url(#filter2_d_83_47)">
<rect x="96" width="18" height="142" fill="white" fill-opacity="0.5" shape-rendering="crispEdges"/>
</g>
<g filter="url(#filter3_d_83_47)">
<rect x="120" y="20" width="18" height="118" fill="white" fill-opacity="0.4" shape-rendering="crispEdges"/>
</g>
<g filter="url(#filter4_d_83_47)">
<rect x="144" y="39" width="18" height="93" fill="white" fill-opacity="0.3" shape-rendering="crispEdges"/>
</g>
<g filter="url(#filter5_d_83_47)">
<path d="M37.851 140.723C37.1455 141.909 37.5357 143.444 38.7226 144.149C39.9095 144.855 41.4435 144.464 42.149 143.277L37.851 140.723ZM59.6923 108.871L61.2336 106.903L58.9957 105.151L57.5433 107.594L59.6923 108.871ZM75.0769 120.918L73.5356 122.886L75.6924 124.575L77.1776 122.274L75.0769 120.918ZM97.2308 86.5848L99.297 85.1775L97.1745 82.0611L95.1301 85.2293L97.2308 86.5848ZM104.615 97.4269L102.549 98.8342L104.69 101.977L106.727 98.7657L104.615 97.4269ZM126.769 62.4912L128.835 61.0839L126.695 57.9407L124.658 61.1524L126.769 62.4912ZM139.077 80.5614L137.011 81.9687L138.644 84.3674L140.775 82.3965L139.077 80.5614ZM184 39L155.847 45.3828L175.451 66.5726L184 39ZM42.149 143.277L61.8413 110.149L57.5433 107.594L37.851 140.723L42.149 143.277ZM58.151 110.84L73.5356 122.886L76.6182 118.95L61.2336 106.903L58.151 110.84ZM77.1776 122.274L99.3314 87.9403L95.1301 85.2293L72.9763 119.563L77.1776 122.274ZM95.1645 87.9921L102.549 98.8342L106.682 96.0196L99.297 85.1775L95.1645 87.9921ZM106.727 98.7657L128.881 63.8301L124.658 61.1524L102.504 96.0881L106.727 98.7657ZM124.703 63.8986L137.011 81.9687L141.143 79.1541L128.835 61.0839L124.703 63.8986ZM140.775 82.3965L169.182 56.115L165.786 52.4448L137.379 78.7263L140.775 82.3965Z" fill="#C14B4B"/>
</g>
<defs>
<filter id="filter0_d_83_47" x="44" y="39" width="26" height="100" filterUnits="userSpaceOnUse" color-interpolation-filters="sRGB">
<feFlood flood-opacity="0" result="BackgroundImageFix"/>
<feColorMatrix in="SourceAlpha" type="matrix" values="0 0 0 0 0 0 0 0 0 0 0 0 0 0 0 0 0 0 127 0" result="hardAlpha"/>
<feOffset dy="4"/>
<feGaussianBlur stdDeviation="2"/>
<feComposite in2="hardAlpha" operator="out"/>
<feColorMatrix type="matrix" values="0 0 0 0 0 0 0 0 0 0 0 0 0 0 0 0 0 0 0.25 0"/>
<feBlend mode="normal" in2="BackgroundImageFix" result="effect1_dropShadow_83_47"/>
<feBlend mode="normal" in="SourceGraphic" in2="effect1_dropShadow_83_47" result="shape"/>
</filter>
<filter id="filter1_d_83_47" x="68" y="20" width="26" height="126" filterUnits="userSpaceOnUse" color-interpolation-filters="sRGB">
<feFlood flood-opacity="0" result="BackgroundImageFix"/>
<feColorMatrix in="SourceAlpha" type="matrix" values="0 0 0 0 0 0 0 0 0 0 0 0 0 0 0 0 0 0 127 0" result="hardAlpha"/>
<feOffset dy="4"/>
<feGaussianBlur stdDeviation="2"/>
<feComposite in2="hardAlpha" operator="out"/>
<feColorMatrix type="matrix" values="0 0 0 0 0 0 0 0 0 0 0 0 0 0 0 0 0 0 0.25 0"/>
<feBlend mode="normal" in2="BackgroundImageFix" result="effect1_dropShadow_83_47"/>
<feBlend mode="normal" in="SourceGraphic" in2="effect1_dropShadow_83_47" result="shape"/>
</filter>
<filter id="filter2_d_83_47" x="92" y="0" width="26" height="150" filterUnits="userSpaceOnUse" color-interpolation-filters="sRGB">
<feFlood flood-opacity="0" result="BackgroundImageFix"/>
<feColorMatrix in="SourceAlpha" type="matrix" values="0 0 0 0 0 0 0 0 0 0 0 0 0 0 0 0 0 0 127 0" result="hardAlpha"/>
<feOffset dy="4"/>
<feGaussianBlur stdDeviation="2"/>
<feComposite in2="hardAlpha" operator="out"/>
<feColorMatrix type="matrix" values="0 0 0 0 0 0 0 0 0 0 0 0 0 0 0 0 0 0 0.25 0"/>
<feBlend mode="normal" in2="BackgroundImageFix" result="effect1_dropShadow_83_47"/>
<feBlend mode="normal" in="SourceGraphic" in2="effect1_dropShadow_83_47" result="shape"/>
</filter>
<filter id="filter3_d_83_47" x="116" y="20" width="26" height="126" filterUnits="userSpaceOnUse" color-interpolation-filters="sRGB">
<feFlood flood-opacity="0" result="BackgroundImageFix"/>
<feColorMatrix in="SourceAlpha" type="matrix" values="0 0 0 0 0 0 0 0 0 0 0 0 0 0 0 0 0 0 127 0" result="hardAlpha"/>
<feOffset dy="4"/>
<feGaussianBlur stdDeviation="2"/>
<feComposite in2="hardAlpha" operator="out"/>
<feColorMatrix type="matrix" values="0 0 0 0 0 0 0 0 0 0 0 0 0 0 0 0 0 0 0.25 0"/>
<feBlend mode="normal" in2="BackgroundImageFix" result="effect1_dropShadow_83_47"/>
<feBlend mode="normal" in="SourceGraphic" in2="effect1_dropShadow_83_47" result="shape"/>
</filter>
<filter id="filter4_d_83_47" x="140" y="39" width="26" height="101" filterUnits="userSpaceOnUse" color-interpolation-filters="sRGB">
<feFlood flood-opacity="0" result="BackgroundImageFix"/>
<feColorMatrix in="SourceAlpha" type="matrix" values="0 0 0 0 0 0 0 0 0 0 0 0 0 0 0 0 0 0 127 0" result="hardAlpha"/>
<feOffset dy="4"/>
<feGaussianBlur stdDeviation="2"/>
<feComposite in2="hardAlpha" operator="out"/>
<feColorMatrix type="matrix" values="0 0 0 0 0 0 0 0 0 0 0 0 0 0 0 0 0 0 0.25 0"/>
<feBlend mode="normal" in2="BackgroundImageFix" result="effect1_dropShadow_83_47"/>
<feBlend mode="normal" in="SourceGraphic" in2="effect1_dropShadow_83_47" result="shape"/>
</filter>
<filter id="filter5_d_83_47" x="33.4995" y="39" width="154.5" height="113.5" filterUnits="userSpaceOnUse" color-interpolation-filters="sRGB">
<feFlood flood-opacity="0" result="BackgroundImageFix"/>
<feColorMatrix in="SourceAlpha" type="matrix" values="0 0 0 0 0 0 0 0 0 0 0 0 0 0 0 0 0 0 127 0" result="hardAlpha"/>
<feOffset dy="4"/>
<feGaussianBlur stdDeviation="2"/>
<feComposite in2="hardAlpha" operator="out"/>
<feColorMatrix type="matrix" values="0 0 0 0 0 0 0 0 0 0 0 0 0 0 0 0 0 0 0.25 0"/>
<feBlend mode="normal" in2="BackgroundImageFix" result="effect1_dropShadow_83_47"/>
<feBlend mode="normal" in="SourceGraphic" in2="effect1_dropShadow_83_47" result="shape"/>
</filter>
</defs>
</svg>
