<svg width="16" height="20" viewBox="0 0 16 20" fill="none" xmlns="http://www.w3.org/2000/svg">
<g clip-path="url(#clip0_1_23)">
<path fill-rule="evenodd" clip-rule="evenodd" d="M0 11.8C0 8.48 2.67 4.55 8 0C13.33 4.55 16 8.48 16 11.8C16 16.78 12.2 20 8 20C3.8 20 0 16.78 0 11.8ZM4 13.7502V15H5.24983L8.93598 11.3138L7.68615 10.064L4 13.7502ZM9.90251 10.3473C10.0325 10.2173 10.0325 10.0074 9.90251 9.87737L9.12262 9.09748C9.09179 9.06658 9.05517 9.04206 9.01485 9.02534C8.97453 9.00861 8.93131 9 8.88766 9C8.844 9 8.80078 9.00861 8.76046 9.02534C8.72014 9.04206 8.68352 9.06658 8.65269 9.09748L8.04277 9.7074L9.2926 10.9572L9.90251 10.3473ZM7.479 15.021C7.59567 15.021 7.69633 14.9787 7.781 14.894L7.793 15H7.971L7.972 14.312H7.527V14.516L7.659 14.546V14.648C7.659 14.684 7.65567 14.7137 7.649 14.737C7.64233 14.7597 7.632 14.777 7.618 14.789C7.604 14.8003 7.589 14.8083 7.573 14.813C7.557 14.817 7.53733 14.819 7.514 14.819C7.46667 14.819 7.435 14.784 7.419 14.714C7.40367 14.644 7.396 14.5367 7.396 14.392C7.396 14.3227 7.399 14.264 7.405 14.216C7.411 14.1673 7.41867 14.129 7.428 14.101C7.438 14.0723 7.45133 14.0507 7.468 14.036C7.48533 14.0207 7.50267 14.0107 7.52 14.006C7.53733 14.0013 7.55933 13.999 7.586 13.999C7.61867 13.999 7.64233 14.003 7.657 14.011L7.714 14.144H7.896L7.911 13.914L7.905 13.908C7.903 13.9053 7.89733 13.9003 7.888 13.893C7.87867 13.8857 7.86833 13.879 7.857 13.873C7.84633 13.8663 7.83133 13.859 7.812 13.851C7.79333 13.8423 7.77333 13.8353 7.752 13.83C7.73067 13.824 7.70467 13.819 7.674 13.815C7.644 13.811 7.61233 13.809 7.579 13.809C7.505 13.809 7.439 13.8157 7.381 13.829C7.323 13.8417 7.27367 13.861 7.233 13.887C7.19233 13.913 7.158 13.9437 7.13 13.979C7.102 14.0137 7.08 14.055 7.064 14.103C7.048 14.151 7.03633 14.2013 7.029 14.254C7.02233 14.3067 7.019 14.366 7.019 14.432C7.019 14.5207 7.027 14.5997 7.043 14.669C7.05967 14.7383 7.08567 14.8 7.121 14.854C7.15633 14.908 7.204 14.9493 7.264 14.978C7.32467 15.0067 7.39633 15.021 7.479 15.021ZM8.07188 13.869V15H8.39788V13.69H8.33288L8.01188 13.74V13.833L8.07188 13.869ZM8.99512 14.904C9.00779 14.8887 9.01612 14.8763 9.02013 14.867L9.05112 15H9.32812V14.15H8.94713V14.265L9.00113 14.301V14.771C8.99912 14.7723 8.99613 14.7747 8.99212 14.778C8.98879 14.7807 8.98612 14.7827 8.98413 14.784C8.98413 14.784 8.98046 14.7873 8.97713 14.79L8.96912 14.795L8.96113 14.8C8.95779 14.8013 8.95479 14.8023 8.95212 14.803L8.94413 14.806L8.93412 14.808H8.92313C8.89513 14.808 8.87579 14.801 8.86512 14.787C8.85446 14.7723 8.84946 14.75 8.85013 14.72V14.15H8.48713V14.265L8.52213 14.301V14.657C8.52213 14.7877 8.54212 14.881 8.58212 14.937C8.62279 14.993 8.69013 15.021 8.78413 15.021C8.81413 15.021 8.84379 15.0143 8.87313 15.001C8.90246 14.9883 8.92712 14.973 8.94713 14.955C8.96712 14.9363 8.98312 14.9193 8.99512 14.904ZM10.1257 14.928L10.1347 14.917L10.0847 14.781C10.062 14.799 10.033 14.812 9.99769 14.82C9.96303 14.828 9.92903 14.832 9.8957 14.832C9.88103 14.832 9.8687 14.8313 9.8587 14.83C9.8487 14.8287 9.8357 14.8237 9.8197 14.815C9.80436 14.8063 9.79203 14.7943 9.7827 14.779C9.77336 14.763 9.76503 14.7393 9.7577 14.708C9.75036 14.676 9.7467 14.6377 9.7467 14.593C9.7467 14.4903 9.75803 14.4183 9.78069 14.377C9.80403 14.335 9.84603 14.314 9.9067 14.314C9.91603 14.314 9.92336 14.3147 9.9287 14.316L9.98569 14.469L10.1277 14.468L10.1427 14.233L10.1217 14.212C10.0577 14.1567 9.9677 14.129 9.8517 14.129C9.7917 14.129 9.73569 14.1397 9.68369 14.161C9.63236 14.1817 9.58736 14.2113 9.5487 14.25C9.5107 14.288 9.4807 14.336 9.4587 14.394C9.4367 14.452 9.4257 14.5163 9.4257 14.587C9.4257 14.7177 9.46136 14.8227 9.5327 14.902C9.6047 14.9813 9.70836 15.021 9.8437 15.021C9.8837 15.021 9.92103 15.0173 9.9557 15.01C9.99103 15.0033 10.019 14.995 10.0397 14.985C10.061 14.9743 10.079 14.964 10.0937 14.954C10.109 14.9433 10.1197 14.9347 10.1257 14.928ZM10.7111 14.865C10.6957 14.889 10.6734 14.901 10.6441 14.901C10.5827 14.901 10.5521 14.838 10.5521 14.712V14.387C10.5521 14.3443 10.5601 14.3113 10.5761 14.288C10.5921 14.2647 10.6144 14.253 10.6431 14.253C10.7044 14.253 10.7351 14.318 10.7351 14.448V14.764C10.7351 14.8067 10.7271 14.8403 10.7111 14.865ZM10.3011 14.917C10.3717 14.9863 10.4834 15.021 10.6361 15.021C10.7941 15.021 10.9097 14.9843 10.9831 14.911C11.0571 14.8377 11.0941 14.7243 11.0941 14.571C11.0941 14.423 11.0591 14.3127 10.9891 14.24C10.9197 14.1667 10.8067 14.13 10.6501 14.13C10.4894 14.13 10.3734 14.1683 10.3021 14.245C10.2307 14.321 10.1951 14.4343 10.1951 14.585C10.1951 14.737 10.2304 14.8477 10.3011 14.917ZM11.276 14.99C11.34 15.0107 11.4033 15.021 11.466 15.021C11.724 15.021 11.853 14.9183 11.853 14.713C11.853 14.6423 11.8353 14.5833 11.8 14.536C11.7647 14.4887 11.708 14.452 11.63 14.426C11.616 14.422 11.5993 14.4177 11.58 14.413C11.5607 14.4077 11.5457 14.4037 11.535 14.401C11.5243 14.3977 11.5133 14.3937 11.502 14.389C11.4913 14.3837 11.4837 14.3777 11.479 14.371C11.4743 14.3637 11.472 14.3547 11.472 14.344C11.472 14.3067 11.5037 14.288 11.567 14.288C11.6443 14.288 11.705 14.3097 11.749 14.353L11.793 14.21L11.775 14.193C11.721 14.151 11.637 14.13 11.523 14.13C11.4563 14.13 11.396 14.1397 11.342 14.159C11.288 14.1783 11.2437 14.2097 11.209 14.253C11.1743 14.2957 11.157 14.347 11.157 14.407C11.157 14.5537 11.2347 14.6503 11.39 14.697C11.45 14.715 11.4933 14.731 11.52 14.745C11.5467 14.7583 11.56 14.7737 11.56 14.791C11.56 14.809 11.5523 14.823 11.537 14.833C11.5223 14.843 11.495 14.848 11.455 14.848C11.3997 14.848 11.3453 14.84 11.292 14.824C11.2393 14.808 11.2017 14.789 11.179 14.767L11.153 14.928C11.171 14.948 11.212 14.9687 11.276 14.99ZM12.3744 14.303C12.383 14.3383 12.3874 14.3983 12.3874 14.483H12.2354V14.399C12.2354 14.375 12.236 14.3553 12.2374 14.34C12.2394 14.324 12.2434 14.3087 12.2494 14.294C12.2554 14.2787 12.2647 14.2677 12.2774 14.261C12.29 14.2537 12.3064 14.25 12.3264 14.25C12.3497 14.25 12.3657 14.2677 12.3744 14.303ZM12.1124 14.987C12.1677 15.0097 12.2327 15.021 12.3074 15.021C12.3474 15.021 12.3894 15.0163 12.4334 15.007C12.4774 14.9977 12.523 14.9797 12.5704 14.953C12.6184 14.9257 12.6547 14.892 12.6794 14.852L12.6204 14.751C12.6017 14.7683 12.5784 14.7833 12.5504 14.796C12.523 14.8087 12.4957 14.818 12.4684 14.824C12.4417 14.83 12.4167 14.833 12.3934 14.833C12.3694 14.833 12.349 14.831 12.3324 14.827C12.3157 14.823 12.2994 14.815 12.2834 14.803C12.2674 14.791 12.255 14.7723 12.2464 14.747C12.2384 14.7217 12.2344 14.6893 12.2344 14.65V14.631H12.6914V14.52C12.6914 14.3833 12.663 14.2843 12.6064 14.223C12.5497 14.161 12.4557 14.13 12.3244 14.13C12.1877 14.13 12.0814 14.1683 12.0054 14.245C11.9294 14.3217 11.8914 14.4347 11.8914 14.584C11.8914 14.6467 11.8987 14.7037 11.9134 14.755C11.928 14.8057 11.951 14.8513 11.9824 14.892C12.0144 14.9327 12.0577 14.9643 12.1124 14.987Z" fill="currentColor"/>
</g>
<defs>
<clipPath id="clip0_1_23">
<rect width="16" height="20" fill="currentColor"/>
</clipPath>
</defs>
</svg>
