<svg width="289" height="286" viewBox="0 0 289 286" fill="none" xmlns="http://www.w3.org/2000/svg">
<g clip-path="url(#clip0_108_9)">
<rect x="184" y="22" width="72" height="84" rx="5" fill="white"/>
<path d="M218.423 92C218.423 93.3807 219.542 94.5 220.923 94.5C222.304 94.5 223.423 93.3807 223.423 92H218.423ZM218.423 0V92H223.423V0L218.423 0Z" fill="white"/>
<path d="M125 101C123.619 101 122.5 102.119 122.5 103.5C122.5 104.881 123.619 106 125 106L125 101ZM125 106L246 106L246 101L125 101L125 106Z" fill="white"/>
<rect x="132.18" y="260.461" width="83.542" height="97.4656" rx="5" transform="rotate(179.99 132.18 260.461)" fill="white"/>
<path d="M91.8236 179.246C91.8234 177.865 90.7039 176.746 89.3232 176.746C87.9425 176.747 86.8234 177.866 86.8236 179.247L91.8236 179.246ZM91.8418 285.994L91.8236 179.246L86.8236 179.247L86.8418 285.995L91.8418 285.994Z" fill="white"/>
<path d="M194.01 167.5C195.391 167.494 196.505 166.369 196.499 164.989C196.492 163.608 195.368 162.494 193.987 162.5L194.01 167.5ZM193.987 162.5L53.9885 163.143L54.0115 168.143L194.01 167.5L193.987 162.5Z" fill="white"/>
</g>
<defs>
<clipPath id="clip0_108_9">
<rect width="289" height="286" fill="white"/>
</clipPath>
</defs>
</svg>
