<svg width="16" height="19" viewBox="0 0 16 19" fill="none" xmlns="http://www.w3.org/2000/svg">
<path d="M13.0833 6.54167H12.2917V4.95833C12.2917 2.77333 10.5183 1 8.33333 1C6.14833 1 4.375 2.77333 4.375 4.95833V6.54167H3.58333C2.7125 6.54167 2 7.25417 2 8.125V16.0417C2 16.9125 2.7125 17.625 3.58333 17.625H13.0833C13.9542 17.625 14.6667 16.9125 14.6667 16.0417V8.125C14.6667 7.25417 13.9542 6.54167 13.0833 6.54167ZM8.33333 13.6667C7.4625 13.6667 6.75 12.9542 6.75 12.0833C6.75 11.2125 7.4625 10.5 8.33333 10.5C9.20417 10.5 9.91667 11.2125 9.91667 12.0833C9.91667 12.9542 9.20417 13.6667 8.33333 13.6667ZM10.7875 6.54167H5.87917V4.95833C5.87917 3.60458 6.97958 2.50417 8.33333 2.50417C9.68708 2.50417 10.7875 3.60458 10.7875 4.95833V6.54167Z" fill="#AAAAAA"/>
</svg>
